<!DOCTYPE svg PUBLIC "-//W3C//DTD SVG 1.1//EN" "http://www.w3.org/Graphics/SVG/1.1/DTD/svg11.dtd">
<!-- Uploaded to: SVG Repo, www.svgrepo.com, Transformed by: SVG Repo Mixer Tools -->
<svg version="1.1" id="Layer_1" xmlns="http://www.w3.org/2000/svg" xmlns:xlink="http://www.w3.org/1999/xlink" viewBox="0 0 512 512" xml:space="preserve" width="800px" height="800px" fill="#000000">
<g id="SVGRepo_bgCarrier" stroke-width="0"/>
<g id="SVGRepo_tracerCarrier" stroke-linecap="round" stroke-linejoin="round"/>
<g id="SVGRepo_iconCarrier"> <polygon style="fill:#FFDA44;" points="478.609,345.043 478.609,311.652 445.217,311.652 445.217,278.261 345.043,278.261 345.043,311.652 311.652,311.652 311.652,345.043 278.261,345.043 278.261,278.261 311.652,278.261 311.652,244.87 345.043,244.87 345.043,100.174 311.652,100.174 311.652,66.783 278.261,66.783 278.261,33.391 244.87,33.391 244.87,0 100.174,0 100.174,33.391 66.783,33.391 66.783,66.783 33.391,66.783 33.391,100.174 0,100.174 0,244.87 33.391,244.87 33.391,278.261 66.783,278.261 66.783,345.043 33.391,345.043 33.391,378.435 0,378.435 0,445.217 311.652,445.217 311.652,478.609 345.043,478.609 345.043,512 445.217,512 445.217,478.609 478.609,478.609 478.609,445.217 512,445.217 512,345.043 "/> <g> <polygon style="fill:#FFFFFF;" points="66.783,311.652 66.783,345.043 33.391,345.043 33.391,378.435 0,378.435 0,445.217 66.783,445.217 66.783,411.826 66.783,378.435 100.174,378.435 100.174,345.043 100.174,311.652 "/> <polygon style="fill:#FFFFFF;" points="0,211.478 0,244.87 33.391,244.87 33.391,278.261 66.783,278.261 66.783,244.87 66.783,211.478 33.391,211.478 "/> <polygon style="fill:#FFFFFF;" points="311.652,100.174 311.652,66.783 278.261,66.783 278.261,33.391 244.87,33.391 244.87,0 100.174,0 100.174,33.391 66.783,33.391 66.783,66.783 33.391,66.783 33.391,100.174 0,100.174 0,178.087 33.391,178.087 66.783,178.087 66.783,100.174 100.174,100.174 100.174,66.783 244.87,66.783 244.87,100.174 278.261,100.174 278.261,133.565 311.652,133.565 345.043,133.565 345.043,100.174 "/> </g> <polygon style="fill:#9096f4;" points="512,345.043 478.609,345.043 478.609,311.652 445.217,311.652 445.217,278.261 345.043,278.261 345.043,311.652 311.652,311.652 311.652,345.043 278.261,345.043 278.261,445.217 311.652,445.217 311.652,478.609 345.043,478.609 345.043,512 445.217,512 445.217,478.609 478.609,478.609 478.609,445.217 512,445.217 "/> <rect y="100.174" width="33.391" height="144.696"/> <rect x="311.652" y="100.174" width="33.391" height="144.696"/> <rect x="100.174" width="144.696" height="33.391"/> <rect x="33.391" y="66.783" width="33.391" height="33.391"/> <rect x="66.783" y="33.391" width="33.391" height="33.391"/> <rect x="244.87" y="33.391" width="33.391" height="33.391"/> <rect x="278.261" y="66.783" width="33.391" height="33.391"/> <rect x="33.391" y="244.87" width="33.391" height="33.391"/> <rect x="278.261" y="244.87" width="33.391" height="33.391"/> <polygon points="244.87,311.652 211.478,311.652 211.478,345.043 278.261,345.043 278.261,278.261 244.87,278.261 "/> <rect x="33.391" y="345.043" width="33.391" height="33.391"/> <polygon points="133.565,345.043 133.565,311.652 100.174,311.652 100.174,278.261 66.783,278.261 66.783,345.043 "/> <rect x="345.043" y="378.435" width="100.174" height="33.391"/> <rect x="478.609" y="345.043" width="33.391" height="100.174"/> <rect x="345.043" y="478.609" width="100.174" height="33.391"/> <rect x="345.043" y="278.261" width="100.174" height="33.391"/> <polygon points="311.652,345.043 278.261,345.043 278.261,411.826 33.391,411.826 33.391,378.435 0,378.435 0,445.217 311.652,445.217 "/> <rect x="311.652" y="311.652" width="33.391" height="33.391"/> <rect x="445.217" y="311.652" width="33.391" height="33.391"/> <rect x="445.217" y="445.217" width="33.391" height="33.391"/> <rect x="311.652" y="445.217" width="33.391" height="33.391"/> </g>
</svg>